<?xml version="1.0" standalone="no"?><!DOCTYPE svg PUBLIC "-//W3C//DTD SVG 1.1//EN" "http://www.w3.org/Graphics/SVG/1.1/DTD/svg11.dtd"><svg t="1543277554214" class="icon" style="" viewBox="0 0 1024 1024" version="1.1" xmlns="http://www.w3.org/2000/svg" p-id="1957" xmlns:xlink="http://www.w3.org/1999/xlink" width="200" height="200"><defs><style type="text/css"></style></defs><path d="M956.328396 615.509591c-10.178704-40.849041-40.647704-163.57513-40.647704-163.57513L915.680692 50.89352C915.658321 22.773452 892.884869 0 864.74243 0l-352.563464 0-0.223708 0L159.391794 0C131.226985 0 108.453533 22.773452 108.453533 50.89352l0 401.04094c0 0-30.491371 122.703718-40.670075 163.57513-0.067112 0.268449-1.543584 3.981999-1.543584 12.326299l0 234.57998c0 28.142439 22.773452 50.89352 50.938262 50.89352l2.460786 0L119.638922 973.12885c0 28.097697 22.773452 50.87115 50.938262 50.87115l93.330887 0c28.16481 0 50.938262-22.795823 50.938262-50.87115l0-59.819461 197.108926 0 0.178966 0 197.108926 0L709.243151 973.12885c0 28.097697 22.795823 50.87115 50.915891 50.87115l93.353257 0c28.142439 0 50.89352-22.795823 50.89352-50.87115l0-59.819461 2.438415 0c28.16481 0 50.89352-22.773452 50.89352-50.89352L957.737755 627.813519C957.849609 619.469218 956.395508 615.755669 956.328396 615.509591zM246.973391 821.522087c-42.146546 0-76.351466-34.160178-76.351466-76.373837 0-42.168917 34.160178-76.373837 76.351466-76.373837 42.191288 0 76.418578 34.20492 76.418578 76.373837C323.391969 787.339538 289.164679 821.522087 246.973391 821.522087zM512.022371 576.852886 182.433696 576.852886l75.076332-302.341067 254.512343 0 0.178966 0 254.489972 0 75.076332 302.341067L512.201337 576.852886 512.022371 576.852886zM777.227946 821.522087c-42.213658 0-76.373837-34.160178-76.373837-76.373837 0-42.168917 34.160178-76.373837 76.373837-76.373837 42.191288 0 76.329095 34.20492 76.329095 76.373837C853.557041 787.339538 819.374492 821.522087 777.227946 821.522087z" p-id="1958" fill="#8bc34a"></path></svg>