<?xml version="1.0" standalone="no"?><!DOCTYPE svg PUBLIC "-//W3C//DTD SVG 1.1//EN" "http://www.w3.org/Graphics/SVG/1.1/DTD/svg11.dtd"><svg t="1543277871071" class="icon" style="" viewBox="0 0 1024 1024" version="1.1" xmlns="http://www.w3.org/2000/svg" p-id="7878" xmlns:xlink="http://www.w3.org/1999/xlink" width="200" height="200"><defs><style type="text/css"></style></defs><path d="M512 0C229.180952 0 0 229.180952 0 512S229.180952 1024 512 1024C794.638448 1024 1024 794.638448 1024 512S794.638448 0 512 0zM659.188713 713.910406c-22.213757 27.270547-51.470899 45.511111-85.423634 54.721693-14.989771 3.973192-21.491358 11.738977-20.768959 27.451146 0.722399 14.989771 0 29.979541 0 45.511111 0 13.725573-7.223986 20.768959-20.227161 20.76896-16.253968 0.722399-32.507937 0.722399-48.761904 0-14.267372 0-20.768959-8.488183-20.76896-22.213757v-33.230335c0-24.019753-1.264198-25.46455-24.742151-29.257143-29.979541-4.514991-59.236684-11.738977-86.687831-24.742152-21.491358-10.47478-24.019753-15.712169-17.518166-38.467724 4.514991-16.976367 9.029982-33.952734 14.267372-50.206702 5.779189-19.504762 11.016578-21.491358 29.257143-12.461376 30.52134 15.712169 62.487478 24.742152 96.440212 28.715344 21.491358 2.528395 42.982716 0.722399 63.209876-8.488184 37.745326-16.253968 43.705115-59.959083 11.738977-85.965432-11.016578-9.029982-22.755556-15.712169-35.75873-20.768959-33.230335-14.267372-67.724868-25.46455-98.426808-44.246914-50.748501-29.979541-82.714638-71.69806-78.741446-133.463139 3.973192-69.711464 43.705115-112.69418 107.45679-136.172134 26.006349-9.752381 26.728748-9.029982 26.728748-36.481129v-27.992945c0.722399-20.768959 3.973192-24.019753 24.742152-24.742152h18.962963c44.246914 0 44.246914 0 44.246913 44.246914 0 31.243739 0 31.243739 31.243739 35.75873 23.477954 3.973192 46.23351 10.47478 68.447267 20.22716 12.461376 5.23739 16.976367 13.725573 13.003174 26.728748-5.23739 18.962963-10.47478 38.467725-16.976367 56.70829-5.779189 17.518166-11.738977 20.22716-28.715344 12.280776-34.494533-16.976367-70.433862-23.477954-108.179188-21.491358-9.752381 0.722399-19.504762 1.986596-28.715344 5.779188-32.507937 14.267372-38.467725 50.748501-10.47478 72.962258 14.267372 11.016578 29.979541 19.504762 46.955909 26.728748 29.257143 11.738977 57.972487 23.477954 85.965432 39.009523 85.965432 47.678307 109.985185 157.844092 48.220106 232.792946z" p-id="7879" fill="#8bc34a"></path></svg>