<?xml version="1.0" standalone="no"?><!DOCTYPE svg PUBLIC "-//W3C//DTD SVG 1.1//EN" "http://www.w3.org/Graphics/SVG/1.1/DTD/svg11.dtd"><svg t="1543277910148" class="icon" style="" viewBox="0 0 1024 1024" version="1.1" xmlns="http://www.w3.org/2000/svg" p-id="8648" xmlns:xlink="http://www.w3.org/1999/xlink" width="200" height="200"><defs><style type="text/css"></style></defs><path d="M512 0C228.416 0 0 228.416 0 512s231.04 512 512 512c283.584 0 512-228.416 512-512s-231.04-512-512-512z m333.44 666.944a39.552 39.552 0 0 1-36.736 23.616c-5.248 0-10.496 0-15.744-2.624L491.008 551.36c-13.12-5.248-23.616-20.992-23.616-36.736V231.04a40.32 40.32 0 0 1 39.36-39.36 40.32 40.32 0 0 1 39.36 39.36v259.968l278.336 126.016c20.992 7.872 28.864 28.864 20.992 49.92z" p-id="8649" fill="#8bc34a"></path></svg>